<svg width="98" height="120" fill="none" xmlns="http://www.w3.org/2000/svg">

<view
     width="98"
     height="40"
     viewBox="0 0 98 40"
     id="type-1" />
  <g>
    <path
      d="M0 0H93.5279C96.5014 0 98.4354 3.12925 97.1056 5.78885L81.1056 37.7889C80.428 39.144 79.043 40 77.5279 40H0V0Z"
      fill="#24B47E" />
    <path
      d="M16 28L24.3893 16.6136C26.0392 14.3744 29.4142 14.4609 30.9472 16.7816L37.1718 26.2047C37.9123 27.3256 39.1659 28 40.5094 28H49H66"
      stroke="white" stroke-width="2" />
  </g>

  <view
     width="98"
     height="40"
     viewBox="0 0 98 40"
     id="type-3" />
  <g transform="translate(0, 40)">
    <path 
      d="M0 0H93.5279C96.5014 0 98.4354 3.12925 97.1056 5.78885L81.1056 37.7889C80.428 39.144 79.043 40 77.5279 40H0V0Z" 
      fill="#24B47E"/>
    <path 
      d="M16 28L27.443 24.039C28.4403 23.6937 29.5337 23.7567 30.4849 24.2141L37.1707 27.4292C37.9417 27.7999 38.8112 27.9137 39.6517 27.7539L50.7876 25.6355C51.2587 25.5459 51.7421 25.5417 52.2147 25.6232L66 28" 
      stroke="white" 
      stroke-width="2"/>
  </g>

  <view
     width="98"
     height="40"
     viewBox="0 0 98 40"
     id="type-13" />
  <g transform="translate(0, 80)">
    <path 
      d="M0 0H93.5279C96.5014 0 98.4354 3.12925 97.1056 5.78885L81.1056 37.7889C80.428 39.144 79.043 40 77.5279 40H0V0Z" 
      fill="#24B47E"/>
    <path 
      d="M16 28H28H38.3577H49H66" 
      stroke="white" 
      stroke-width="2"/>
  </g>

</svg>
